<?xml version="1.0" encoding="UTF-8"?>
<!DOCTYPE svg PUBLIC "-//W3C//DTD SVG 1.1//EN" "http://www.w3.org/Graphics/SVG/1.1/DTD/svg11.dtd">
<svg version="1.2" width="50mm" height="50mm" viewBox="0 0 5000 5000" preserveAspectRatio="xMidYMid" fill-rule="evenodd" stroke-width="28.222" stroke-linejoin="round" xmlns="http://www.w3.org/2000/svg" xmlns:ooo="http://xml.openoffice.org/svg/export" xmlns:xlink="http://www.w3.org/1999/xlink" xmlns:presentation="http://sun.com/xmlns/staroffice/presentation" xmlns:smil="http://www.w3.org/2001/SMIL20/" xmlns:anim="urn:oasis:names:tc:opendocument:xmlns:animation:1.0" xml:space="preserve">
 <defs class="ClipPathGroup">
  <clipPath id="presentation_clip_path" clipPathUnits="userSpaceOnUse">
   <rect x="0" y="0" width="5000" height="5000"/>
  </clipPath>
  <clipPath id="presentation_clip_path_shrink" clipPathUnits="userSpaceOnUse">
   <rect x="5" y="5" width="4990" height="4990"/>
  </clipPath>
 </defs>
 <defs class="TextShapeIndex">
  <g ooo:slide="id1" ooo:id-list="id3 id4"/>
 </defs>
 <defs class="EmbeddedBulletChars">
  <g id="bullet-char-template-57356" transform="scale(0.00048828125,-0.00048828125)">
   <path d="M 580,1141 L 1163,571 580,0 -4,571 580,1141 Z"/>
  </g>
  <g id="bullet-char-template-57354" transform="scale(0.00048828125,-0.00048828125)">
   <path d="M 8,1128 L 1137,1128 1137,0 8,0 8,1128 Z"/>
  </g>
  <g id="bullet-char-template-10146" transform="scale(0.00048828125,-0.00048828125)">
   <path d="M 174,0 L 602,739 174,1481 1456,739 174,0 Z M 1358,739 L 309,1346 659,739 1358,739 Z"/>
  </g>
  <g id="bullet-char-template-10132" transform="scale(0.00048828125,-0.00048828125)">
   <path d="M 2015,739 L 1276,0 717,0 1260,543 174,543 174,936 1260,936 717,1481 1274,1481 2015,739 Z"/>
  </g>
  <g id="bullet-char-template-10007" transform="scale(0.00048828125,-0.00048828125)">
   <path d="M 0,-2 C -7,14 -16,27 -25,37 L 356,567 C 262,823 215,952 215,954 215,979 228,992 255,992 264,992 276,990 289,987 310,991 331,999 354,1012 L 381,999 492,748 772,1049 836,1024 860,1049 C 881,1039 901,1025 922,1006 886,937 835,863 770,784 769,783 710,716 594,584 L 774,223 C 774,196 753,168 711,139 L 727,119 C 717,90 699,76 672,76 641,76 570,178 457,381 L 164,-76 C 142,-110 111,-127 72,-127 30,-127 9,-110 8,-76 1,-67 -2,-52 -2,-32 -2,-23 -1,-13 0,-2 Z"/>
  </g>
  <g id="bullet-char-template-10004" transform="scale(0.00048828125,-0.00048828125)">
   <path d="M 285,-33 C 182,-33 111,30 74,156 52,228 41,333 41,471 41,549 55,616 82,672 116,743 169,778 240,778 293,778 328,747 346,684 L 369,508 C 377,444 397,411 428,410 L 1163,1116 C 1174,1127 1196,1133 1229,1133 1271,1133 1292,1118 1292,1087 L 1292,965 C 1292,929 1282,901 1262,881 L 442,47 C 390,-6 338,-33 285,-33 Z"/>
  </g>
  <g id="bullet-char-template-9679" transform="scale(0.00048828125,-0.00048828125)">
   <path d="M 813,0 C 632,0 489,54 383,161 276,268 223,411 223,592 223,773 276,916 383,1023 489,1130 632,1184 813,1184 992,1184 1136,1130 1245,1023 1353,916 1407,772 1407,592 1407,412 1353,268 1245,161 1136,54 992,0 813,0 Z"/>
  </g>
  <g id="bullet-char-template-8226" transform="scale(0.00048828125,-0.00048828125)">
   <path d="M 346,457 C 273,457 209,483 155,535 101,586 74,649 74,723 74,796 101,859 155,911 209,963 273,989 346,989 419,989 480,963 531,910 582,859 608,796 608,723 608,648 583,586 532,535 482,483 420,457 346,457 Z"/>
  </g>
  <g id="bullet-char-template-8211" transform="scale(0.00048828125,-0.00048828125)">
   <path d="M -4,459 L 1135,459 1135,606 -4,606 -4,459 Z"/>
  </g>
  <g id="bullet-char-template-61548" transform="scale(0.00048828125,-0.00048828125)">
   <path d="M 173,740 C 173,903 231,1043 346,1159 462,1274 601,1332 765,1332 928,1332 1067,1274 1183,1159 1299,1043 1357,903 1357,740 1357,577 1299,437 1183,322 1067,206 928,148 765,148 601,148 462,206 346,322 231,437 173,577 173,740 Z"/>
  </g>
 </defs>
 <g>
  <g id="id2" class="Master_Slide">
   <g id="bg-id2" class="Background"/>
   <g id="bo-id2" class="BackgroundObjects"/>
  </g>
 </g>
 <g class="SlideGroup">
  <g>
   <g id="container-id1">
    <g id="id1" class="Slide" clip-path="url(#presentation_clip_path)">
     <g class="Page">
      <g class="com.sun.star.drawing.CustomShape">
       <g id="id3">
        <rect class="BoundingBox" stroke="none" fill="none" x="-251" y="-251" width="5503" height="5503"/>
        <path fill="rgb(0,188,235)" stroke="none" d="M 2500,5250 L -250,5250 -250,-250 5250,-250 5250,5250 2500,5250 Z"/>
        <path fill="none" stroke="rgb(52,101,164)" d="M 2500,5250 L -250,5250 -250,-250 5250,-250 5250,5250 2500,5250 Z"/>
       </g>
      </g>
      <g class="com.sun.star.drawing.CustomShape">
       <g id="id4">
        <rect class="BoundingBox" stroke="none" fill="none" x="378" y="1374" width="4245" height="2253"/>
        <path fill="rgb(255,255,255)" stroke="none" d="M 3850,3046 L 3813,3049 3780,3057 3751,3073 3724,3093 3700,3116 3682,3143 3669,3173 3661,3206 3658,3241 3661,3276 3669,3310 3682,3340 3700,3367 3724,3390 3751,3409 3780,3423 3813,3433 3850,3436 3886,3433 3918,3423 3949,3409 3976,3390 3998,3367 4017,3340 4031,3310 4039,3276 4043,3241 4039,3206 4031,3173 4017,3143 3998,3116 3976,3093 3949,3073 3918,3057 3886,3049 3850,3046 3850,3046 Z M 1577,2869 L 1764,2869 1764,3612 1577,3612 1577,2869 1577,2869 Z M 3850,2857 L 3906,2861 3958,2871 4006,2887 4052,2910 4093,2937 4130,2969 4162,3007 4189,3047 4210,3090 4226,3138 4236,3190 4240,3241 4236,3293 4226,3343 4210,3390 4189,3435 4162,3476 4130,3513 4093,3546 4052,3573 4006,3595 3958,3611 3906,3622 3850,3626 3795,3622 3742,3611 3693,3595 3648,3573 3607,3546 3569,3513 3537,3476 3510,3435 3489,3390 3473,3343 3463,3293 3460,3241 3463,3190 3473,3138 3489,3090 3510,3047 3537,3007 3569,2969 3607,2937 3648,2910 3693,2887 3742,2871 3795,2861 3850,2857 3850,2857 Z M 3095,2857 L 3131,2858 3163,2861 3192,2866 3217,2871 3238,2876 3255,2880 3265,2884 3265,3083 3258,3079 3245,3073 3228,3065 3204,3057 3176,3050 3144,3044 3107,3042 3069,3046 3034,3055 3001,3070 2972,3088 2950,3111 2931,3138 2916,3170 2907,3203 2905,3241 2907,3277 2915,3311 2929,3341 2948,3369 2971,3392 2999,3412 3032,3427 3068,3435 3107,3439 3144,3436 3176,3432 3203,3425 3228,3417 3245,3409 3258,3403 3265,3398 3265,3598 3250,3603 3229,3608 3202,3616 3171,3621 3134,3624 3095,3626 3047,3623 3001,3616 2956,3602 2913,3585 2874,3563 2836,3537 2803,3506 2775,3473 2749,3434 2729,3391 2714,3344 2706,3294 2701,3241 2706,3187 2716,3135 2732,3087 2752,3042 2781,3002 2814,2965 2851,2934 2891,2907 2938,2885 2987,2869 3040,2861 3095,2857 3095,2857 Z M 1151,2857 L 1188,2858 1221,2861 1251,2866 1275,2871 1296,2876 1311,2880 1322,2884 1322,3083 1314,3079 1303,3073 1285,3065 1263,3057 1233,3050 1201,3044 1166,3042 1128,3046 1091,3055 1059,3070 1031,3088 1007,3111 988,3138 973,3170 966,3203 961,3241 966,3277 973,3311 987,3341 1006,3369 1030,3392 1058,3412 1090,3427 1127,3435 1166,3439 1201,3436 1233,3432 1260,3425 1284,3417 1302,3409 1314,3403 1322,3398 1322,3598 1307,3603 1286,3608 1259,3616 1227,3621 1192,3624 1151,3626 1104,3623 1058,3616 1014,3602 972,3585 931,3563 894,3537 861,3506 832,3473 807,3434 786,3391 773,3344 763,3294 759,3241 763,3187 774,3135 789,3087 811,3042 838,3002 871,2965 909,2934 950,2907 995,2885 1046,2869 1096,2861 1151,2857 1151,2857 Z M 2288,2857 L 2321,2858 2355,2861 2384,2863 2411,2868 2434,2872 2452,2876 2464,2879 2470,2880 2470,3039 2465,3038 2454,3035 2439,3031 2420,3028 2398,3023 2373,3019 2348,3017 2325,3015 2290,3018 2261,3024 2238,3033 2222,3046 2212,3060 2208,3077 2212,3095 2221,3109 2233,3121 2248,3130 2264,3137 2280,3143 2293,3148 2345,3164 2384,3179 2417,3196 2445,3217 2469,3239 2488,3263 2503,3289 2514,3317 2520,3346 2522,3375 2519,3417 2511,3454 2498,3486 2480,3515 2460,3540 2436,3560 2409,3579 2379,3595 2347,3606 2315,3616 2282,3621 2249,3624 2217,3626 2179,3624 2145,3623 2111,3619 2082,3617 2057,3612 2037,3608 2022,3606 2016,3605 2016,3434 2027,3436 2043,3441 2066,3446 2093,3452 2124,3457 2156,3461 2191,3462 2228,3460 2258,3456 2283,3449 2303,3438 2315,3425 2324,3409 2326,3392 2324,3374 2315,3360 2302,3347 2285,3336 2265,3326 2244,3319 2231,3315 2217,3310 2204,3306 2173,3295 2145,3283 2116,3267 2092,3250 2070,3230 2051,3208 2035,3182 2024,3155 2016,3124 2013,3088 2016,3049 2025,3011 2040,2977 2061,2947 2087,2920 2118,2898 2153,2880 2194,2867 2238,2860 2288,2857 2288,2857 Z M 4529,1980 L 4553,1983 4575,1992 4594,2007 4609,2026 4618,2047 4622,2073 4622,2267 4618,2293 4609,2315 4594,2332 4575,2348 4553,2358 4529,2360 4505,2358 4483,2348 4464,2332 4450,2315 4440,2293 4437,2267 4437,2073 4440,2047 4450,2026 4464,2007 4483,1992 4505,1983 4529,1980 4529,1980 Z M 2500,1980 L 2524,1983 2546,1992 2565,2007 2579,2026 2588,2047 2592,2073 2592,2267 2588,2293 2579,2315 2565,2332 2546,2348 2524,2358 2500,2360 2475,2358 2453,2348 2434,2332 2420,2315 2411,2293 2407,2267 2407,2073 2411,2047 2420,2026 2434,2007 2453,1992 2475,1983 2500,1980 2500,1980 Z M 470,1980 L 494,1983 516,1992 536,2007 549,2026 559,2047 563,2073 563,2267 559,2293 549,2315 536,2332 516,2348 494,2358 470,2360 446,2358 424,2348 405,2332 390,2315 381,2293 378,2267 378,2073 381,2047 390,2026 405,2007 424,1992 446,1983 470,1980 470,1980 Z M 4022,1724 L 4047,1727 4069,1737 4087,1751 4102,1770 4111,1792 4114,1816 4114,2267 4111,2293 4102,2315 4087,2332 4069,2348 4047,2358 4022,2360 3996,2358 3974,2348 3957,2332 3942,2315 3933,2293 3930,2267 3930,1816 3933,1792 3942,1770 3957,1751 3974,1737 3996,1727 4022,1724 4022,1724 Z M 3008,1724 L 3032,1727 3053,1737 3072,1751 3088,1770 3096,1792 3099,1816 3099,2267 3096,2293 3088,2315 3072,2332 3053,2348 3032,2358 3008,2360 2983,2358 2961,2348 2942,2332 2928,2315 2918,2293 2915,2267 2915,1816 2918,1792 2928,1770 2942,1751 2961,1737 2983,1727 3008,1724 3008,1724 Z M 1992,1724 L 2017,1727 2039,1737 2057,1751 2072,1770 2082,1792 2084,1816 2084,2267 2082,2293 2072,2315 2057,2332 2039,2348 2017,2358 1992,2360 1968,2358 1946,2348 1927,2332 1913,2315 1903,2293 1900,2267 1900,1816 1903,1792 1913,1770 1927,1751 1946,1737 1968,1727 1992,1724 1992,1724 Z M 977,1724 L 1001,1727 1025,1737 1042,1751 1057,1770 1066,1792 1069,1816 1069,2267 1066,2293 1057,2315 1042,2332 1025,2348 1001,2358 977,2360 952,2358 930,2348 913,2332 897,2315 888,2293 886,2267 886,1816 888,1792 897,1770 913,1751 930,1737 952,1727 977,1724 977,1724 Z M 3515,1375 L 3540,1377 3562,1387 3580,1402 3594,1420 3605,1442 3607,1467 3607,2453 3605,2478 3594,2500 3580,2517 3562,2533 3540,2542 3515,2544 3491,2542 3468,2533 3450,2517 3435,2500 3427,2478 3423,2453 3423,1467 3427,1442 3435,1420 3450,1402 3468,1387 3491,1377 3515,1375 3515,1375 Z M 1485,1375 L 1510,1377 1531,1387 1550,1402 1565,1420 1574,1442 1577,1467 1577,2453 1574,2478 1565,2500 1550,2517 1531,2533 1510,2542 1485,2544 1461,2542 1439,2533 1419,2517 1405,2500 1396,2478 1392,2453 1392,1467 1396,1442 1405,1420 1419,1402 1439,1387 1461,1377 1485,1375 1485,1375 Z"/>
       </g>
      </g>
     </g>
    </g>
   </g>
  </g>
 </g>
</svg>